<svg viewBox="0 0 37 41" xmlns="http://www.w3.org/2000/svg">
<path fill-rule="evenodd" clip-rule="evenodd" d="M-0.0146179 16.3474L18.1851 6.28168L36.7203 16.9535L18.1555 27.0797L-0.0146179 16.3474ZM4.01461 16.4044L18.1948 24.7801L32.6301 16.9063L18.1653 8.57811L4.01461 16.4044Z"/>
<path fill-rule="evenodd" clip-rule="evenodd" d="M9.17521 35.9299L9.17521 20.858L18.1682 15.568L19.1822 17.2918L11.1752 22.0018L11.1752 35.9299L9.17521 35.9299Z"/>
<path fill-rule="evenodd" clip-rule="evenodd" d="M7 35H13V41H7V35ZM9 37V39H11V37H9Z"/>
<path fill-rule="evenodd" clip-rule="evenodd" d="M31.4286 27.5874L30.6752 26.9298C31.4286 27.5874 31.4287 27.5873 31.4286 27.5874L31.4257 27.5906L31.4193 27.5979L31.396 27.6243C31.376 27.647 31.3469 27.6798 31.3095 27.7214C31.2348 27.8046 31.1268 27.9237 30.9912 28.0698C30.7203 28.3615 30.3375 28.763 29.8884 29.2029C29.0077 30.0659 27.8083 31.141 26.6756 31.7957C24.0947 33.2874 22.2282 33.9299 19.1752 33.9299C16.1019 33.9299 14.2865 33.1873 11.7051 31.8125C10.4945 31.1678 9.17273 30.1032 8.18855 29.2414C7.68816 28.8032 7.25916 28.4032 6.95495 28.1125C6.80267 27.967 6.68122 27.8485 6.59723 27.7657C6.55522 27.7243 6.52255 27.6918 6.50005 27.6693L6.47402 27.6432L6.46691 27.6361L6.464 27.6331C6.46391 27.633 6.46384 27.633 7.17489 26.9298L6.464 27.6331L6.17489 27.3408L6.17489 19.956L8.17489 19.956L8.17489 26.5109C8.22344 26.5579 8.27752 26.61 8.33666 26.6665C8.62514 26.9422 9.03237 27.3218 9.50615 27.7367C10.4703 28.5811 11.6487 29.5165 12.6453 30.0473C15.0826 31.3454 16.5623 31.9299 19.1752 31.9299C21.8083 31.9299 23.3327 31.4178 25.6748 30.0641C26.5778 29.5422 27.6284 28.6173 28.4887 27.7744C28.9102 27.3614 29.2707 26.9834 29.5255 26.709C29.5806 26.6497 29.6306 26.5953 29.6752 26.5465L29.6752 19.4299L31.6752 19.4299L31.6752 27.3048L31.4286 27.5874Z"/>
</svg>
