<svg viewBox="0 0 21 25" xmlns="http://www.w3.org/2000/svg">
<path fill-rule="evenodd" clip-rule="evenodd" d="M15 24.75L7 24.75V23.25L15 23.25V24.75Z"/>
<path fill-rule="evenodd" clip-rule="evenodd" d="M10 24L10 -6.22256e-09L11.5 0L11.5 24L10 24Z"/>
<path fill-rule="evenodd" clip-rule="evenodd" d="M14.75 0V10.2451C14.75 11.3582 14.2938 12.4225 13.4879 13.1901C11.8288 14.7702 9.19277 14.6687 7.66016 12.9658L7.39349 12.6695C6.65733 11.8515 6.25 10.79 6.25 9.68957V0L7.75 0L7.75 9.68957C7.75 10.4195 8.02017 11.1235 8.50843 11.666L8.7751 11.9623C9.74244 13.0371 11.4062 13.1012 12.4534 12.1039C12.9621 11.6194 13.25 10.9476 13.25 10.2451V0L14.75 0Z"/>
<path fill-rule="evenodd" clip-rule="evenodd" d="M17.75 0V10.5164C17.75 12.9417 16.4918 15.1934 14.4262 16.4645C12.0286 17.94 8.97952 17.8317 6.69263 16.1898L6.39242 15.9742C4.41973 14.558 3.25 12.2782 3.25 9.84972V0L4.75 0V9.84972C4.75 11.795 5.68701 13.6212 7.26723 14.7558L7.56744 14.9713C9.36317 16.2605 11.7574 16.3456 13.6401 15.187C15.262 14.1889 16.25 12.4208 16.25 10.5164V0L17.75 0Z"/>
<path fill-rule="evenodd" clip-rule="evenodd" d="M20.75 0V10.622C20.75 14.4041 18.5991 17.8571 15.2044 19.5247C12.246 20.9779 8.75895 20.8666 5.89921 19.2277L5.58236 19.0461C2.28432 17.156 0.25 13.6454 0.25 9.84419V0L1.75 0V9.84419C1.75 13.1078 3.4966 16.1219 6.32821 17.7447L6.64506 17.9263C9.07233 19.3174 12.032 19.4118 14.5431 18.1783C17.4244 16.7629 19.25 13.8322 19.25 10.622V0L20.75 0Z"/>
</svg>
