<svg viewBox="0 0 32 25" xmlns="http://www.w3.org/2000/svg">
<path fill-rule="evenodd" clip-rule="evenodd" d="M30 6H2V23H30V6ZM2 4C0.895431 4 0 4.89543 0 6V23C0 24.1046 0.895431 25 2 25H30C31.1046 25 32 24.1046 32 23V6C32 4.89543 31.1046 4 30 4H2Z"/>
<path fill-rule="evenodd" clip-rule="evenodd" d="M11 3V4.5H9V3C9 1.34315 10.3431 0 12 0L20 0C21.6569 0 23 1.34315 23 3V4H21V3C21 2.44772 20.5523 2 20 2L12 2C11.4477 2 11 2.44772 11 3Z"/>
<path fill-rule="evenodd" clip-rule="evenodd" d="M1.38115 7.57549L0.999991 8.5C0.61881 9.4245 0.618861 9.42452 0.618929 9.42455L0.632105 9.42997L0.669041 9.44512L0.809744 9.50246C0.931872 9.55205 1.10891 9.62351 1.32988 9.71157C1.77165 9.88763 2.38994 10.1304 3.09679 10.3974C4.50226 10.9285 6.28842 11.5674 7.73541 11.9644C8.18587 12.088 8.61169 12.209 9.02139 12.3254C11.3484 12.9866 13.1552 13.5 16 13.5C18.8448 13.5 20.6516 12.9866 22.9786 12.3254C23.3883 12.209 23.8141 12.088 24.2646 11.9644C25.7116 11.5674 27.4977 10.9285 28.9032 10.3974C29.61 10.1304 30.2283 9.88763 30.6701 9.71157C30.8911 9.62351 31.0681 9.55205 31.1902 9.50246L31.3309 9.44512L31.3679 9.42997L31.3801 9.42494L31.3811 9.42455C31.3811 9.42452 31.3812 9.4245 31 8.5L30.6188 7.57549L30.6078 7.58002L30.5733 7.59417L30.4378 7.64939C30.3193 7.69752 30.1463 7.76736 29.9297 7.85367C29.4964 8.02637 28.8895 8.26462 28.1963 8.52654C26.8016 9.0535 25.0878 9.66461 23.7354 10.0356C23.2579 10.1667 22.8159 10.2919 22.399 10.41C20.0905 11.0639 18.5509 11.5 16 11.5C13.4491 11.5 11.9095 11.0639 9.60103 10.41C9.18412 10.2919 8.74213 10.1667 8.26457 10.0356C6.91222 9.66461 5.19839 9.0535 3.80369 8.52654C3.11046 8.26462 2.50362 8.02637 2.07029 7.85367C1.85371 7.76736 1.6807 7.69752 1.56217 7.64939L1.42666 7.59417L1.39215 7.58002L1.38115 7.57549Z"/>
<path fill-rule="evenodd" clip-rule="evenodd" d="M19 13V15.5C19 16.3284 18.3284 17 17.5 17H15C14.1716 17 13.5 16.3284 13.5 15.5V13H14.5V15.5C14.5 15.7761 14.7239 16 15 16H17.5C17.7761 16 18 15.7761 18 15.5V13H19Z"/>
</svg>
