<svg viewBox="0 0 31 29" xmlns="http://www.w3.org/2000/svg">
<path fill-rule="evenodd" clip-rule="evenodd" d="M4.5 15.5138H1.5V26.5138H4.5V15.5138ZM0 14.0138V28.0138H6V14.0138H0Z"/>
<path fill-rule="evenodd" clip-rule="evenodd" d="M20.3871 1.96422C20.0586 1.78339 19.7991 1.72954 19.6029 1.75671C19.1075 1.82532 18.7479 1.99094 18.4617 2.22901C18.1682 2.47316 17.9124 2.82676 17.681 3.3281C17.3564 4.0313 17.4553 4.50886 17.6545 5.471C17.6801 5.59443 17.7073 5.72583 17.7354 5.86671C17.8644 6.51145 18.2392 7.18054 18.7889 7.84328C19.3346 8.50114 20.0185 9.11167 20.7016 9.63834C21.3824 10.1632 22.0464 10.5926 22.5413 10.891C22.721 10.9994 22.8776 11.0901 23.0037 11.1613C23.1321 11.0902 23.2922 10.9993 23.4759 10.8904C23.9771 10.5932 24.6484 10.1656 25.3337 9.64232C26.0215 9.11704 26.706 8.50837 27.2459 7.85236C27.7897 7.19152 28.1505 6.5265 28.2609 5.88637C28.2745 5.80783 28.2876 5.7329 28.3001 5.66115C28.4484 4.81443 28.5189 4.4116 28.2919 3.76083C27.8454 2.48095 27.0787 1.7638 26 1.7638C25.8216 1.7638 25.5885 1.8394 25.3029 2.0291C25.0221 2.21568 24.7426 2.47833 24.487 2.76398C24.234 3.04663 24.0213 3.33269 23.8711 3.54981C23.7965 3.65767 23.7385 3.74682 23.6999 3.80777C23.6806 3.83821 23.6663 3.8615 23.6571 3.87644L23.6475 3.89242L23.646 3.8949L23.0415 4.91948L22.3781 3.93295L22.3754 3.92908L22.363 3.91112C22.3515 3.89446 22.3334 3.86874 22.3093 3.8353C22.2611 3.76833 22.1891 3.67094 22.0972 3.55391C21.9123 3.31835 21.6525 3.01055 21.3489 2.71299C21.042 2.4121 20.7114 2.14275 20.3871 1.96422ZM22.9657 2.24868C22.8013 2.05747 22.6103 1.84892 22.3989 1.64177C22.0389 1.28885 21.5984 0.918801 21.1105 0.650185C20.6268 0.383874 20.0328 0.18284 19.3971 0.270894C18.654 0.37382 18.0256 0.6406 17.5024 1.07584C16.9865 1.50501 16.6116 2.06563 16.319 2.69951C15.7754 3.8773 15.9842 4.84827 16.1863 5.78805C16.2131 5.91274 16.2398 6.03689 16.2646 6.16089C16.4606 7.14084 16.9983 8.03408 17.6344 8.80097C18.2746 9.57273 19.0501 10.2591 19.7858 10.8263C20.5238 11.3953 21.2379 11.8566 21.7665 12.1755C22.0314 12.3352 22.2512 12.4601 22.406 12.5457C22.4835 12.5885 22.5448 12.6215 22.5874 12.6442L22.6371 12.6704L22.6509 12.6776L22.6563 12.6804C22.6565 12.6805 22.6571 12.6808 23 12.0138L22.6563 12.6804L22.9963 12.8552L23.337 12.6838L23 12.0138C23.337 12.6838 23.3368 12.6839 23.337 12.6838L23.3391 12.6828L23.3433 12.6807L23.3573 12.6735L23.4078 12.6474C23.4512 12.6248 23.5134 12.592 23.592 12.5493C23.7492 12.4642 23.9723 12.3399 24.2408 12.1807C24.7766 11.863 25.4997 11.4029 26.2441 10.8344C26.9859 10.2679 27.7662 9.58066 28.4041 8.80553C29.038 8.03523 29.568 7.13387 29.7391 6.14123C29.7537 6.05654 29.7687 5.9727 29.7837 5.88939C29.9306 5.06895 30.0685 4.29965 29.7082 3.26677C29.15 1.66675 27.9714 0.263802 26 0.263802C25.4159 0.263802 24.8928 0.500707 24.4728 0.77975C24.0481 1.06192 23.673 1.42427 23.3693 1.76363C23.221 1.92928 23.0856 2.09413 22.9657 2.24868Z"/>
<path fill-rule="evenodd" clip-rule="evenodd" d="M30.7712 22.5731L27.3951 25.3865L27.2933 25.4298L27.2644 25.442L27.1837 25.476C27.1137 25.5053 27.0122 25.5476 26.8857 25.5998C26.6327 25.7042 26.2787 25.8483 25.874 26.0077C25.0702 26.3242 24.046 26.7088 23.2155 26.9579C22.3192 27.2267 21.1667 27.4822 20.2531 27.6684C19.7932 27.7621 19.388 27.8394 19.0976 27.8934C18.9524 27.9204 18.8356 27.9415 18.755 27.956L18.662 27.9726L18.6293 27.9783L18.5 27.2395C18.5169 27.9893 18.5168 27.9893 18.5168 27.9893L18.5026 27.9896L18.464 27.9904C18.4303 27.991 18.3812 27.9917 18.318 27.9925C18.1917 27.994 18.0092 27.9955 17.7821 27.9954C17.3282 27.9952 16.6949 27.9887 15.9764 27.9631C14.5525 27.9126 12.7448 27.7861 11.3365 27.4715C9.93887 27.1592 8.26145 26.5112 6.96073 25.9572C6.30435 25.6776 5.73255 25.4169 5.32459 25.2261C5.12049 25.1306 4.95706 25.0525 4.84419 24.998C4.78775 24.9707 4.74393 24.9493 4.71396 24.9346L4.67954 24.9177L4.66791 24.912L4.66695 24.9115C4.66687 24.9115 4.66681 24.9115 4.99999 24.2395L5.33313 23.5676L5.33518 23.5686L5.34267 23.5723L5.3737 23.5875C5.40136 23.6011 5.44276 23.6213 5.49666 23.6473C5.60447 23.6994 5.76224 23.7748 5.96014 23.8674C6.3562 24.0527 6.91173 24.3059 7.54857 24.5771C8.83429 25.1248 10.4069 25.7268 11.6635 26.0076C12.9299 26.2905 14.6222 26.4141 16.0296 26.4641C16.7268 26.4889 17.342 26.4953 17.7827 26.4954C18.0029 26.4955 18.1791 26.4941 18.2998 26.4926C18.3537 26.492 18.3965 26.4913 18.4272 26.4908L18.4903 26.4795C18.5681 26.4656 18.6818 26.445 18.8237 26.4186C19.1076 26.3659 19.504 26.2902 19.9536 26.1986C20.859 26.0141 21.9564 25.7695 22.7845 25.5211C23.552 25.291 24.5278 24.9256 25.3245 24.6119C25.72 24.4562 26.0664 24.3152 26.3137 24.2132C26.4373 24.1622 26.5361 24.121 26.6037 24.0927L26.6058 24.0918L29.2039 21.9267C29.1972 21.8904 29.1897 21.8527 29.1812 21.8143C29.1139 21.508 29.0234 21.3236 28.9697 21.2699C28.9159 21.2161 28.7315 21.1256 28.4253 21.0583C28.2947 21.0296 28.173 21.0116 28.0837 21.0009C28.0714 20.9994 28.0598 20.9981 28.049 20.9969L23.5823 21.9895H14.5V20.4895H20.4649C20.5268 20.2859 20.5919 20.0414 20.6371 19.7929C20.6936 19.4821 20.709 19.2177 20.6806 19.0333C20.669 18.9577 20.6546 18.9187 20.6456 18.9009C19.706 18.438 16.6167 17.4045 13.885 16.9807C12.223 16.7228 10.0327 16.7199 8.22537 16.7869C7.32851 16.8202 6.53843 16.8701 5.97285 16.9117C5.69021 16.9325 5.46401 16.9512 5.30901 16.9646C5.23152 16.9713 5.17186 16.9767 5.13186 16.9804L5.08687 16.9846L5.07333 16.9859L4.99999 16.2395C4.9272 15.4931 4.92728 15.4931 4.92738 15.493L4.94504 15.4914L4.99396 15.4868C5.03662 15.4828 5.09909 15.4772 5.17951 15.4702C5.34033 15.4563 5.57305 15.4371 5.86281 15.4158C6.44205 15.3732 7.25076 15.322 8.16976 15.2879C9.99409 15.2203 12.3039 15.2174 14.115 15.4984C16.9835 15.9435 20.2517 17.0269 21.3354 17.5687C21.8923 17.8472 22.0977 18.3795 22.1631 18.8052C22.2285 19.2301 22.1814 19.6844 22.1129 20.0612C22.086 20.2091 22.0542 20.3532 22.0205 20.4895H23.4177L27.9398 19.4846L28.0446 19.4909L28 20.2395C28.0446 19.4909 28.0445 19.4908 28.0446 19.4909L28.0459 19.4909L28.0477 19.491L28.0523 19.4913L28.0661 19.4923C28.0773 19.4931 28.0925 19.4943 28.1111 19.4959C28.1483 19.4991 28.1998 19.5041 28.2622 19.5116C28.386 19.5264 28.5574 19.5516 28.7473 19.5933C29.0819 19.6668 29.6474 19.8263 30.0303 20.2092C30.4132 20.5921 30.5727 21.1576 30.6462 21.4923C30.688 21.6821 30.7131 21.8536 30.7279 21.9773C30.7354 22.0397 30.7404 22.0912 30.7436 22.1284C30.7452 22.1471 30.7464 22.1622 30.7472 22.1734L30.7482 22.1872L30.7485 22.1919L30.7486 22.1936L30.7486 22.1946C30.7487 22.1948 30.7487 22.1949 30 22.2395L30.7486 22.1946L30.7712 22.5731ZM20.6371 18.8884C20.6373 18.8879 20.6394 18.8899 20.6427 18.8956C20.6385 18.8916 20.6369 18.8888 20.6371 18.8884ZM18.5 27.2395L18.5168 27.9893L18.5731 27.9881L18.6293 27.9783L18.5 27.2395Z"/>
</svg>
